<svg xmlns="http://www.w3.org/2000/svg" width="60" height="60" viewBox="0 0 60 60"><defs><style>.a{fill:#b1cf56;}</style></defs><path class="a" d="M51.213,8.787A30,30,0,0,0,8.787,51.213,30,30,0,0,0,51.213,8.787ZM30,56.484A26.484,26.484,0,1,1,56.484,30,26.514,26.514,0,0,1,30,56.484Z"/><g transform="translate(20.742 11.359)"><path class="a" d="M187.869,113.29h-3.753a3.878,3.878,0,1,1,0-7.755h7.506a1.752,1.752,0,0,0,0-3.5h-3.878V98.153a1.752,1.752,0,1,0-3.5,0v3.878h-.125a7.382,7.382,0,1,0,0,14.763h3.753a3.878,3.878,0,0,1,0,7.755h-7.506a1.752,1.752,0,1,0,0,3.5h3.878v3.878a1.752,1.752,0,0,0,3.5,0v-3.878h.125a7.382,7.382,0,0,0,0-14.763Z" transform="translate(-176.734 -96.401)"/></g></svg>