<svg width="60" height="162" viewBox="0 0 60 162" fill="none" xmlns="http://www.w3.org/2000/svg">
<path fill-rule="evenodd" clip-rule="evenodd" d="M9.0103 0L10.2305 0.000364568L11.4503 0.249243L12.4262 0.746999L13.4021 1.49363L59.1622 79.0895C59.6841 79.5703 60 80.1984 60 80.8858C60 81.6365 59.623 82.3167 59.0125 82.8113L13.0888 160.447L12.1228 161.207L11.1536 161.718L9.93709 161.983L8.71701 162C8.71701 162 6.09268 161.427 4.29044 159.322C3.90507 158.872 3.58188 158.496 3.29706 158.165C2.60708 157.362 2.1425 156.822 1.56462 156.124C0.440199 154.764 0.104742 153.991 0.10236 153.808C0.101407 153.737 0.0883031 153.622 0.0717447 153.476C0.00491555 152.887 -0.118022 151.805 0.279737 151.163C0.472362 150.852 0.611381 150.427 0.75457 150.161C8.77931 135.287 15.6839 123.228 22.6344 111.09C28.1147 101.52 33.6236 91.8991 39.7324 80.8091C33.3969 69.4544 27.9932 59.8201 22.6183 50.2372C15.9988 38.435 9.42294 26.7108 1.20367 11.9465C1.14292 11.8374 1.08252 11.7008 1.01867 11.5563C0.976619 11.4612 0.933019 11.3625 0.886799 11.266C0.833788 11.1553 0.777323 11.0475 0.715735 10.951C0.309757 10.315 0.41828 9.2311 0.477485 8.64135C0.492137 8.49528 0.503692 8.37959 0.503692 8.3085C0.503692 8.12536 0.829023 7.34798 1.93558 5.97344C2.50368 5.26776 2.96089 4.72152 3.63954 3.91084L3.64204 3.90756C3.92222 3.57276 4.24017 3.19288 4.61923 2.73802C6.39371 0.608949 9.0103 0 9.0103 0Z" fill="#DFDFDF"/>
</svg>
