<svg xmlns="http://www.w3.org/2000/svg" width="60" height="60" viewBox="0 0 60 60"><defs><style>.a,.c{fill:#b1cf56;}.b{fill:none;stroke-width:2px;}.b,.c{stroke:#b1cf56;stroke-miterlimit:10;}</style></defs><path class="a" d="M51.211,8.789a29.989,29.989,0,0,0-42.422,0,29.989,29.989,0,0,0,0,42.422,29.989,29.989,0,0,0,42.422,0,29.989,29.989,0,0,0,0-42.422ZM30,56.484A26.484,26.484,0,1,1,56.484,30,26.517,26.517,0,0,1,30,56.484Z" transform="translate(0 0)"/><g transform="translate(14.96 9.942)"><path class="b" d="M283.057,325.779l-4.781-3.82a.8.8,0,0,0-1.137.129l-9.586,11.906a.811.811,0,0,0,.105,1.125l4.184,3.609" transform="translate(-251.001 -294.014)"/><path class="b" d="M153.784,171.668l-1.734-1.43a1.159,1.159,0,0,1-.4-.691c-.3-1.863-2.18-8.93-.809-10.371.973-1.031,3.516-3.832,3.527-5.555.023-2.355-3.562-2.8-6.844-.352a7.5,7.5,0,0,0-2.414,3.164,17.235,17.235,0,0,0-1.418,4.793.148.148,0,0,1-.234.117l-12.246-9.738s-1.7-1.312-2.883,0a2.018,2.018,0,0,0-.457,2.426l7.219,6.176a.428.428,0,0,1-.234.75,2.343,2.343,0,0,0-1.687.926,2.141,2.141,0,0,0,.3,2.672.29.29,0,0,1-.27.457c-.809-.129-1.945-.117-2.391.809-.562,1.172.188,2.66.551,3.258a.139.139,0,0,1-.141.211c-.8-.105-2.824-.141-2.59,2.379a1.534,1.534,0,0,0,.492,1l7.969,7.406s3.3,1.922,4.781,1.512a.433.433,0,0,1,.375.082l2.1,1.723" transform="translate(-127.658 -143.266)"/><path class="c" d="M268.653,88.055l-8.18,6.738a.43.43,0,0,1-.609-.059l-.117-.141a.43.43,0,0,1,.059-.609l8.18-6.738a.43.43,0,0,1,.609.059l.117.141A.44.44,0,0,1,268.653,88.055Z" transform="translate(-244.179 -86.876)"/><path class="c" d="M191.566,116.339l3.949,3.328a.439.439,0,0,1,.047.609l-.117.141a.439.439,0,0,1-.609.047l-3.949-3.328a.439.439,0,0,1-.047-.609l.117-.141A.439.439,0,0,1,191.566,116.339Z" transform="translate(-183.346 -112.558)"/><path class="c" d="M154.266,84.939l1.98,1.676a.439.439,0,0,1,.047.609l-.117.141a.439.439,0,0,1-.609.047l-1.98-1.676a.439.439,0,0,1-.047-.609l.117-.141A.44.44,0,0,1,154.266,84.939Z" transform="translate(-150.417 -84.838)"/></g></svg>