<svg xmlns="http://www.w3.org/2000/svg" width="60.2" height="60.2" viewBox="0 0 60.2 60.2"><defs><style>.a,.b{fill:#b1cf56;}.b{stroke:#b1cf56;stroke-miterlimit:10;}</style></defs><path class="a" d="M51.382,8.818a30.089,30.089,0,0,0-42.563,0,30.089,30.089,0,0,0,0,42.563,30.089,30.089,0,0,0,42.563,0,30.089,30.089,0,0,0,0-42.563ZM30.1,56.673A26.573,26.573,0,1,1,56.673,30.1,26.605,26.605,0,0,1,30.1,56.673Z" transform="translate(0 0)"/><g transform="translate(13.592 11.44)"><path class="b" d="M117.928,251.312c-1.211,0-2.328.682-2.328,1.846v6.067a2.372,2.372,0,0,0,2.328,2.281h3.01V251.3h-3.01Z" transform="translate(-115.6 -233.193)"/><path class="b" d="M243.18,350.7a3.1,3.1,0,0,0,.047,6.208,3.3,3.3,0,0,0,2.281-.917,2.881,2.881,0,0,0,.776-2.14A3.149,3.149,0,0,0,243.18,350.7Z" transform="translate(-225.461 -320.906)"/><path class="b" d="M357.628,251.4H355.1v10.206h2.528c.529,0,2.328-.2,2.328-1.8V253.74A2.515,2.515,0,0,0,357.628,251.4Z" transform="translate(-326.94 -233.281)"/><path class="b" d="M166.05,110.9v3.551h1.458V110.9a13.6,13.6,0,1,0-27.208,0v3.551h1.458V110.9a12.146,12.146,0,1,1,24.292,0Z" transform="translate(-137.396 -97.3)"/><path class="b" d="M306.231,331.44a8.126,8.126,0,0,1-7.137,3.163L299,336.014h.87a9.3,9.3,0,0,0,7.525-3.739l1.258-1.752-1.164-.823Z" transform="translate(-277.436 -302.375)"/></g></svg>